<?xml version="1.0" standalone="no"?>
<!DOCTYPE svg PUBLIC "-//W3C//DTD SVG 20010904//EN"
 "http://www.w3.org/TR/2001/REC-SVG-20010904/DTD/svg10.dtd">
<svg version="1.0" xmlns="http://www.w3.org/2000/svg"
 width="1280.000000pt" height="1280.000000pt" viewBox="0 0 1280.000000 1280.000000"
 preserveAspectRatio="xMidYMid meet">
<g transform="translate(0.000000,1280.000000) scale(0.100000,-0.100000)"
fill="#000000" stroke="none">
<path d="M4559 7799 c-464 -49 -921 -334 -1294 -808 -258 -328 -429 -512 -615
-662 -247 -199 -504 -329 -760 -385 -120 -26 -410 -26 -530 0 -447 97 -906
427 -1258 904 -34 46 -62 81 -62 78 0 -14 117 -272 162 -356 184 -346 388
-622 641 -866 219 -213 416 -352 672 -475 306 -147 587 -214 945 -226 601 -19
1222 160 1960 564 278 152 482 234 790 317 603 162 1416 190 2070 70 439 -80
753 -191 1134 -398 314 -172 545 -275 825 -370 403 -137 755 -195 1115 -183
207 7 334 24 520 71 647 164 1216 622 1631 1311 97 160 279 535 261 535 -2 0
-26 -30 -52 -66 -75 -105 -156 -200 -282 -327 -312 -317 -634 -508 -982 -583
-105 -23 -410 -26 -505 -6 -266 58 -522 183 -760 372 -102 81 -315 289 -414
405 -43 50 -127 153 -187 230 -368 473 -755 739 -1214 836 -152 32 -418 32
-578 1 -553 -110 -1059 -493 -1287 -975 -41 -87 -94 -256 -96 -311 0 -11 -7
10 -15 48 -98 496 -581 990 -1154 1180 -227 75 -450 100 -681 75z"/>
</g>
</svg>
