<?xml version="1.0" standalone="no"?>
<!DOCTYPE svg PUBLIC "-//W3C//DTD SVG 20010904//EN"
 "http://www.w3.org/TR/2001/REC-SVG-20010904/DTD/svg10.dtd">
<svg version="1.0" xmlns="http://www.w3.org/2000/svg"
 width="652.000000pt" height="1280.000000pt" viewBox="0 0 652.000000 1280.000000"
 preserveAspectRatio="xMidYMid meet">
<g transform="translate(0.000000,1280.000000) scale(0.100000,-0.100000)"
fill="#000000" stroke="none">
<path d="M3112 12780 c-251 -46 -442 -147 -602 -316 -177 -188 -268 -407 -277
-669 -12 -306 82 -549 292 -761 168 -169 339 -260 561 -299 520 -91 1036 237
1173 745 157 580 -208 1169 -799 1290 -147 30 -227 33 -348 10z"/>
<path d="M1980 10463 c-193 -29 -401 -117 -563 -239 -170 -128 -349 -345 -430
-525 -19 -41 -126 -374 -237 -740 -780 -2568 -750 -2467 -750 -2528 0 -44 33
-158 63 -217 35 -70 132 -157 204 -184 211 -81 432 8 533 214 17 34 210 667
434 1419 223 747 410 1365 417 1373 17 21 437 21 445 0 3 -8 -76 -306 -175
-663 -99 -356 -301 -1084 -450 -1618 -610 -2194 -691 -2487 -691 -2500 0 -13
90 -15 638 -17 l637 -3 5 -1930 c4 -1585 8 -1937 19 -1970 38 -113 105 -199
196 -254 57 -35 205 -81 258 -81 32 0 163 34 214 55 102 43 196 149 236 264
l22 66 5 1935 5 1935 244 3 c189 2 246 -1 253 -10 4 -7 8 -880 8 -1939 0
-1893 0 -1928 20 -1991 42 -135 148 -237 294 -284 120 -38 161 -40 258 -14
187 50 292 144 349 315 11 33 15 387 19 1970 l5 1930 639 3 638 2 -6 25 c-3
13 -305 1089 -671 2392 -366 1302 -663 2373 -661 2380 4 10 57 13 228 13 123
0 229 -4 236 -8 6 -5 196 -624 420 -1378 225 -753 422 -1396 438 -1429 36 -74
132 -173 198 -204 153 -71 334 -39 457 82 57 56 88 112 118 213 27 91 26 123
-3 236 -13 51 -223 748 -466 1548 -475 1566 -473 1560 -590 1718 -252 343
-629 578 -1022 637 -144 22 -2296 20 -2438 -2z"/>
</g>
</svg>
